<svg width="26" height="26" viewBox="0 0 26 26" fill="none" xmlns="http://www.w3.org/2000/svg">
<path d="M1.62 10.93H7.91C8.8 10.93 9.53 11.65 9.53 12.55C9.53 13.44 8.81 14.17 7.91 14.17H1.62C0.729995 14.17 0 13.45 0 12.55C0 12.1 0.180001 11.7 0.470001 11.41C0.770001 11.11 1.18 10.93 1.62 10.93Z" fill="#B81F74"/>
<path d="M25.1 12.52C25.11 12.98 24.93 13.39 24.63 13.69C24.34 13.98 23.93 14.16 23.49 14.16H17.2C16.31 14.16 15.58 13.44 15.58 12.54C15.58 11.65 16.3 10.92 17.2 10.92H23.45C24.34 10.93 25.09 11.63 25.1 12.52Z" fill="#B81F74"/>
<path d="M14.17 1.62V7.91C14.17 8.8 13.4499 9.53 12.5499 9.53C11.6599 9.53 10.9299 8.81 10.9299 7.91V1.62C10.9299 0.73 11.6499 0 12.5499 0C12.9999 0 13.3999 0.18 13.6899 0.47C13.9899 0.76 14.17 1.17 14.17 1.62Z" fill="#B81F74"/>
<path d="M12.5499 15.57C13.4399 15.57 14.17 16.29 14.17 17.19V23.48C14.17 24.37 13.4499 25.1 12.5499 25.1C12.0999 25.1 11.6999 24.92 11.4099 24.63C11.1199 24.34 10.9399 23.93 10.9399 23.49V17.2C10.9399 16.3 11.6599 15.57 12.5499 15.57Z" fill="#B81F74"/>
</svg>
